<?xml version="1.0" encoding="iso-8859-1"?>
<!-- Generator: Adobe Illustrator 19.0.0, SVG Export Plug-In . SVG Version: 6.00 Build 0)  -->
<svg version="1.1" id="Capa_1" xmlns="http://www.w3.org/2000/svg" xmlns:xlink="http://www.w3.org/1999/xlink" x="0px" y="0px"
	 width="16px" height="16px" viewBox="0 0 512 512" style="enable-background:new 0 0 512 512;" xml:space="preserve">
<g>
	<g>
		<path d="M443.317,137.366H68.683c-10.346,0-18.732,8.386-18.732,18.732v337.171c0,10.346,8.386,18.732,18.732,18.732h374.634
			c10.346,0,18.732-8.386,18.732-18.732V156.098C462.049,145.751,453.663,137.366,443.317,137.366z M424.585,474.537H87.415V174.829
			h337.171V474.537z"/>
	</g>
</g>
<g>
	<g>
		<path d="M326.556,222.907c-10.346,0-18.732,8.386-18.732,18.732v28.722H204.176v-28.722c0-10.346-8.386-18.732-18.732-18.732
			s-18.732,8.386-18.732,18.732v28.722c0,21.005,16.459,37.463,37.463,37.463h103.649c21.005,0,37.463-16.459,37.463-37.463v-28.722
			C345.288,231.293,336.902,222.907,326.556,222.907z"/>
	</g>
</g>
<g>
	<g>
		<path d="M412.098,68.683H99.902c-10.346,0-18.732,8.386-18.732,18.732c0,10.346,8.386,18.732,18.732,18.732h312.195
			c10.346,0,18.732-8.386,18.732-18.732C430.829,77.068,422.444,68.683,412.098,68.683z"/>
	</g>
</g>
<g>
	<g>
		<path d="M380.878,0H131.122c-10.346,0-18.732,8.386-18.732,18.732c0,10.346,8.386,18.732,18.732,18.732h249.756
			c10.346,0,18.732-8.386,18.732-18.732C399.61,8.386,391.224,0,380.878,0z"/>
	</g>
</g>
<g>
</g>
<g>
</g>
<g>
</g>
<g>
</g>
<g>
</g>
<g>
</g>
<g>
</g>
<g>
</g>
<g>
</g>
<g>
</g>
<g>
</g>
<g>
</g>
<g>
</g>
<g>
</g>
<g>
</g>
</svg>
